<?xml version="1.0" encoding="UTF-8" standalone="no"?>
<!DOCTYPE svg PUBLIC "-//W3C//DTD SVG 1.1//EN" "http://www.w3.org/Graphics/SVG/1.1/DTD/svg11.dtd">
<svg xmlns="http://www.w3.org/2000/svg" xmlns:xlink="http://www.w3.org/1999/xlink" version="1.1" width="719.827pt" height="261.168pt" viewBox="0 0 719.827 261.168">
<g enable-background="new">
<g id="Layer-1" data-name="Layer 1">
<clipPath id="cp0">
<path transform="matrix(1,0,0,-1,0,261.168)" d="M 0 261.168 L 719.827 261.168 L 719.827 0 L 0 0 Z "/>
</clipPath>
<g clip-path="url(#cp0)">
<path transform="matrix(1,0,0,-1,148.2504,101.355899)" d="M 0 0 C -4.809 4.834 -14.452 10.939 -14.452 10.939 C -14.452 10.939 -16.371 22.176 -17.667 26.338 C -8.995 34.71 -7.7 35.981 .648 44.004 C 1.296 27.957 .972 19.61 0 0 " fill="#000222" fill-rule="evenodd"/>
<path transform="matrix(1,0,0,-1,155.003,135.0693)" d="M 0 0 C -5.781 -1.595 -6.429 -1.919 -12.21 -3.538 C -18.314 0 -23.771 1.919 -28.904 1.296 C -28.256 4.485 -27.31 6.753 -26.338 9.643 C -15.424 11.238 -7.401 5.457 0 0 " fill="#000222" fill-rule="evenodd"/>
<path transform="matrix(1,0,0,-1,243.6342,130.5842)" d="M 0 0 C 0 -29.976 -11.91 -58.73 -33.09 -79.935 C -39.17 -86.015 -45.848 -91.322 -53.024 -95.807 C -53.024 -95.807 -53.049 -95.832 -53.074 -95.832 L -91.846 -47.518 L -59.727 -51.056 C -59.727 -51.056 -44.303 -52.651 -40.79 -51.056 C -37.575 -49.785 -20.233 -25.366 -20.233 -25.366 C -20.233 -25.366 -70.018 6.105 -87.037 23.447 C -85.093 52.676 -89.279 91.547 -89.279 91.223 C -101.813 78.714 -103.407 76.771 -115.941 65.209 C -121.398 82.875 -123.964 88.98 -129.421 106.647 C -145.817 93.166 -158.325 70.342 -167.321 43.68 C -169.289 41.513 -171.183 39.22 -173.051 36.778 C -174.272 35.159 -175.494 33.514 -176.665 31.82 C -179.082 28.381 -181.399 24.768 -183.616 20.981 C -185.186 18.314 -186.731 15.573 -188.226 12.783 C -198.667 -6.827 -207.238 -29.303 -214.664 -49.536 C -214.714 -49.461 -214.763 -49.361 -214.788 -49.287 C -222.164 -34.062 -226.101 -17.243 -226.101 0 C -226.101 30.001 -214.19 58.755 -192.985 79.96 C -171.781 101.165 -143.026 113.075 -113.05 113.075 C -83.05 113.075 -54.295 101.165 -33.09 79.96 C -11.91 58.755 0 30.001 0 0 " fill="#000222" fill-rule="evenodd"/>
<path transform="matrix(1,0,0,-1,148.2504,101.355899)" d="M 0 0 C -4.809 4.834 -14.452 10.939 -14.452 10.939 C -14.452 10.939 -16.371 22.176 -17.667 26.338 C -8.995 34.71 -7.7 35.981 .648 44.004 C 1.296 27.957 .972 19.61 0 0 " fill="#dd1100" fill-rule="evenodd"/>
<path transform="matrix(1,0,0,-1,155.003,135.0693)" d="M 0 0 C -5.781 -1.595 -6.429 -1.919 -12.21 -3.538 C -18.314 0 -23.771 1.919 -28.904 1.296 C -28.256 4.485 -27.31 6.753 -26.338 9.643 C -15.424 11.238 -7.401 5.457 0 0 " fill="#dd1100" fill-rule="evenodd"/>
<path transform="matrix(1,0,0,-1,243.6342,130.5842)" d="M 0 0 C 0 -29.976 -11.91 -58.73 -33.09 -79.935 C -39.17 -86.015 -45.848 -91.322 -53.024 -95.807 C -53.024 -95.807 -53.049 -95.832 -53.074 -95.832 L -91.846 -47.518 L -59.727 -51.056 C -59.727 -51.056 -44.303 -52.651 -40.79 -51.056 C -37.575 -49.785 -20.233 -25.366 -20.233 -25.366 C -20.233 -25.366 -70.018 6.105 -87.037 23.447 C -85.093 52.676 -89.279 91.547 -89.279 91.223 C -101.813 78.714 -103.407 76.771 -115.941 65.209 C -121.398 82.875 -123.964 88.98 -129.421 106.647 C -145.817 93.166 -158.325 70.342 -167.321 43.68 C -169.289 41.513 -171.183 39.22 -173.051 36.778 C -174.272 35.159 -175.494 33.514 -176.665 31.82 C -179.082 28.381 -181.399 24.768 -183.616 20.981 C -185.186 18.314 -186.731 15.573 -188.226 12.783 C -198.667 -6.827 -207.238 -29.303 -214.664 -49.536 C -214.714 -49.461 -214.763 -49.361 -214.788 -49.287 C -222.164 -34.062 -226.101 -17.243 -226.101 0 C -226.101 30.001 -214.19 58.755 -192.985 79.96 C -171.781 101.165 -143.026 113.075 -113.05 113.075 C -83.05 113.075 -54.295 101.165 -33.09 79.96 C -11.91 58.755 0 30.001 0 0 " fill="#dd1100" fill-rule="evenodd"/>
<path transform="matrix(1,0,0,-1,148.2504,101.355899)" d="M 0 0 C -4.809 4.834 -14.452 10.939 -14.452 10.939 C -14.452 10.939 -16.371 22.176 -17.667 26.338 C -8.995 34.71 -7.7 35.981 .648 44.004 C 1.296 27.957 .972 19.61 0 0 " fill="#ffffff" fill-rule="evenodd"/>
<path transform="matrix(1,0,0,-1,155.003,135.0693)" d="M 0 0 C -5.781 -1.595 -6.429 -1.919 -12.21 -3.538 C -18.314 0 -23.771 1.919 -28.904 1.296 C -28.256 4.485 -27.31 6.753 -26.338 9.643 C -15.424 11.238 -7.401 5.457 0 0 " fill="#ffffff" fill-rule="evenodd"/>
<path transform="matrix(1,0,0,-1,155.003,135.0693)" d="M 0 0 C -5.781 -1.595 -6.429 -1.919 -12.21 -3.538 C -18.314 0 -23.771 1.919 -28.904 1.296 C -28.256 4.485 -27.31 6.753 -26.338 9.643 C -15.424 11.238 -7.401 5.457 0 0 " fill-rule="evenodd"/>
<path transform="matrix(1,0,0,-1,151.7886,178.1018)" d="M 0 0 L 38.772 -48.315 C 38.796 -48.315 38.821 -48.29 38.821 -48.29 Z M -122.943 -1.769 C -122.918 -1.844 -122.868 -1.943 -122.818 -2.018 C -115.393 18.215 -106.821 40.69 -96.381 60.3 C -106.896 40.765 -115.542 18.364 -122.943 -1.769 " fill="#000222" fill-rule="evenodd"/>
<path transform="matrix(1,0,0,-1,210.5439,210.5192)" d="M 0 0 C -6.08 -6.08 -12.758 -11.387 -19.934 -15.872 C -19.934 -15.872 -19.959 -15.897 -19.984 -15.897 L -58.755 32.417 L -26.637 28.879 C -26.637 28.879 -11.213 27.284 -7.7 28.879 C -4.485 30.15 12.857 54.569 12.857 54.569 C 12.857 54.569 -36.928 86.04 -53.946 103.382 C -52.003 132.611 -56.189 171.482 -56.189 171.158 C -68.722 158.649 -70.317 156.706 -82.85 145.144 C -88.307 162.81 -90.874 168.915 -96.331 186.582 C -112.726 173.101 -125.235 150.277 -134.23 123.615 C -136.199 121.448 -138.092 119.155 -139.961 116.713 C -141.182 115.094 -142.403 113.449 -143.574 111.755 C -145.991 108.316 -148.309 104.703 -150.526 100.916 C -152.096 98.249 -153.641 95.508 -155.136 92.718 C -155.784 91.497 -156.432 90.251 -157.079 89.005 C -166.648 70.317 -174.621 49.361 -181.573 30.399 C -181.623 30.474 -181.673 30.574 -181.698 30.648 C -189.074 45.873 -193.011 62.692 -193.011 79.935 C -193.011 109.936 -181.1 138.69 -159.895 159.895 C -138.69 181.1 -109.936 193.01 -79.96 193.01 C -49.959 193.01 -21.205 181.1 0 159.895 C 21.18 138.69 33.09 109.936 33.09 79.935 C 33.09 49.959 21.18 21.205 0 0 M -79.96 135.501 C -71.289 143.873 -69.993 145.144 -61.646 153.167 C -60.998 137.121 -61.322 128.773 -62.294 109.163 C -67.103 113.997 -76.746 120.102 -76.746 120.102 C -76.746 120.102 -78.664 131.34 -79.96 135.501 M -39.818 -26.363 C -109.089 -51.405 -159.148 -5.307 -169.837 10.814 C -169.787 10.964 -169.763 11.088 -169.738 11.238 C -160.119 51.903 -148.259 100.567 -129.097 114.944 C -119.13 132.312 -116.24 158.001 -98.274 171.482 C -93.764 158.001 -86.688 130.044 -81.879 116.564 C -60.674 95.359 -28.555 69.021 -7.052 58.107 C -4.809 56.812 -1.919 47.817 -1.919 47.817 L -10.59 36.903 L -103.083 46.222 C -105.152 46.396 -107.22 46.471 -109.288 46.471 C -115.218 46.471 -121.298 45.798 -128.449 44.627 C -123.964 55.865 -114.321 64.86 -114.321 64.86 C -114.321 64.86 -123.316 70.317 -130.069 71.264 C -128.125 75.774 -122.992 81.555 -121.697 83.149 C -124.288 82.203 -142.901 73.855 -144.845 66.779 C -135.85 64.536 -129.421 61.646 -129.421 61.646 C -129.421 61.646 -139.363 51.679 -141.307 34.336 C -141.307 34.336 -111.755 38.846 -89.578 35.956 C -88.955 35.632 -88.631 35.632 -88.307 35.632 L -76.746 35.308 L -40.017 -25.839 L -39.718 -26.313 C -39.768 -26.338 -39.793 -26.363 -39.818 -26.363 M 8.846 168.741 C -14.701 192.288 -46.646 205.519 -79.96 205.519 C -113.25 205.519 -145.194 192.288 -168.766 168.741 C -192.313 145.194 -205.544 113.25 -205.544 79.935 C -205.544 46.645 -192.313 14.701 -168.766 -8.846 C -145.194 -32.418 -113.25 -45.649 -79.96 -45.649 C -46.646 -45.649 -14.701 -32.418 8.846 -8.846 C 32.393 14.701 45.624 46.645 45.624 79.935 C 45.624 113.25 32.393 145.194 8.846 168.741 " fill-rule="evenodd"/>
<path transform="matrix(1,0,0,-1,128.6653,125.4263)" d="M 0 0 C 10.914 1.595 18.937 -4.186 26.338 -9.643 C 20.557 -11.238 19.909 -11.562 14.128 -13.181 C 8.023 -9.643 2.566 -7.724 -2.567 -8.347 C -1.919 -5.158 -.972 -2.89 0 0 M -46.571 -40.466 C -39.419 -39.295 -33.34 -38.622 -27.409 -38.622 C -25.341 -38.622 -23.273 -38.697 -21.205 -38.871 L 71.289 -48.19 L 79.96 -37.276 C 79.96 -37.276 77.07 -28.281 74.827 -26.985 C 53.323 -16.072 21.205 10.266 0 31.471 C -4.809 44.951 -11.886 72.908 -16.396 86.389 C -34.361 72.908 -37.252 47.219 -47.219 29.851 C -66.38 15.474 -78.241 -33.19 -87.859 -73.855 C -87.884 -74.005 -87.909 -74.129 -87.959 -74.279 C -77.269 -90.4 -27.21 -136.498 42.061 -111.456 C 42.085 -111.456 42.11 -111.431 42.16 -111.406 L 41.861 -110.932 L 5.133 -49.785 L -6.429 -49.461 C -6.753 -49.461 -7.077 -49.461 -7.7 -49.137 C -29.876 -46.247 -59.428 -50.757 -59.428 -50.757 C -57.485 -33.414 -47.543 -23.447 -47.543 -23.447 C -47.543 -23.447 -53.971 -20.557 -62.966 -18.314 C -61.023 -11.238 -42.41 -2.89 -39.818 -1.943 C -41.114 -3.538 -46.247 -9.319 -48.19 -13.829 C -41.438 -14.776 -32.443 -20.233 -32.443 -20.233 C -32.443 -20.233 -42.086 -29.228 -46.571 -40.466 " fill="#ffffff" fill-rule="evenodd"/>
<path transform="matrix(1,0,0,-1,317.0587,26.359299)" d="M 0 0 L 14.591 0 L 27.827 -61.596 L 38.04 0 L 50.443 0 L 35.748 -79.104 L 21.47 -79.104 L 7.295 -13.966 L -6.879 -79.104 L -21.157 -79.104 L -35.854 0 L -23.451 0 L -13.236 -61.596 Z "/>
<path transform="matrix(1,0,0,-1,370.5201,78.4706)" d="M 0 0 C 0 16.05 4.586 27.306 23.139 27.306 C 41.689 27.306 46.274 16.05 46.274 0 C 46.274 -16.051 41.689 -27.306 23.139 -27.306 C 4.586 -27.306 0 -16.051 0 0 M 34.498 0 C 34.498 11.151 33.039 17.509 23.139 17.509 C 13.236 17.509 11.776 11.151 11.776 0 C 11.776 -11.152 13.236 -17.51 23.139 -17.51 C 33.039 -17.51 34.498 -11.152 34.498 0 "/>
<path transform="matrix(1,0,0,-1,425.7535,91.7074)" d="M 0 0 L 0 65.349 L 11.673 65.349 L 11.673 .104 C 11.673 -2.815 12.715 -3.855 16.051 -3.855 L 16.051 -13.341 C 16.051 -13.341 15.008 -13.549 13.757 -13.549 C 4.274 -13.549 0 -8.963 0 0 "/>
<path transform="matrix(1,0,0,-1,485.5749,36.260408)" d="M 0 0 C -1.876 .625 -4.065 1.042 -7.712 1.042 C -12.924 1.042 -17.093 -.938 -17.093 -6.879 L -17.093 -16.156 L -2.397 -16.156 L -2.397 -26.056 L -17.093 -26.056 L -17.093 -68.266 L -28.765 -68.266 L -28.765 -26.056 L -38.251 -26.056 L -38.251 -18.865 L -28.765 -16.156 L -28.765 -5.837 C -28.765 5.316 -22.512 11.152 -8.546 11.152 C -5.106 11.152 -1.98 10.63 0 9.9 Z "/>
<path transform="matrix(1,0,0,-1,519.9657,61.795)" d="M 0 0 C -1.252 .417 -3.336 .625 -5.733 .625 C -11.882 .625 -16.468 -.834 -19.073 -2.502 L -19.073 -42.731 L -30.745 -42.731 L -30.745 9.379 L -23.868 9.379 L -21.991 5.212 C -18.135 8.337 -12.299 10.63 -5.524 10.63 C -3.336 10.63 -1.459 10.317 0 10.005 Z "/>
<path transform="matrix(1,0,0,-1,543.9349,61.1698)" d="M 0 0 C -6.774 0 -12.297 -1.563 -16.258 -3.128 L -16.258 6.983 C -12.194 8.754 -5.316 10.005 .834 10.005 C 17.927 10.005 21.888 2.501 21.888 -8.546 L 21.888 -43.356 L 15.008 -43.356 L 13.132 -39.188 C 8.963 -42.627 3.128 -44.607 -2.605 -44.607 C -16.05 -44.607 -20.532 -36.271 -20.532 -27.932 C -20.532 -16.675 -13.236 -11.88 -1.459 -10.942 L 10.213 -10.006 L 10.213 -7.4 C 10.213 -2.084 7.712 0 0 0 M -.729 -19.282 C -5.941 -19.907 -8.963 -21.886 -8.963 -27.306 C -8.963 -31.266 -7.295 -35.019 -.938 -35.019 C 3.753 -35.019 6.983 -33.664 10.213 -31.579 L 10.213 -18.031 Z "/>
<path transform="matrix(1,0,0,-1,637.0031,67.735797)" d="M 0 0 C 0 4.899 -2.815 6.67 -7.4 6.67 C -12.507 6.67 -15.946 5.107 -18.656 3.439 C -18.448 1.563 -18.344 -.208 -18.344 -2.292 L -18.344 -36.792 L -30.017 -36.792 L -30.017 0 C -30.017 4.899 -32.726 6.67 -37.415 6.67 C -42.212 6.67 -45.65 5.212 -48.359 3.647 L -48.359 -36.792 L -60.033 -36.792 L -60.033 15.32 L -53.154 15.32 L -51.279 11.152 C -46.901 14.591 -40.647 16.571 -35.541 16.571 C -28.559 16.571 -24.389 14.591 -22.201 11.361 C -17.51 14.695 -11.257 16.571 -5.524 16.571 C 6.774 16.571 11.673 9.9 11.673 0 L 11.673 -36.792 L 0 -36.792 Z "/>
<path transform="matrix(1,0,0,-1,292.8405,198.0185)" d="M 0 0 L 33.977 0 L 33.977 -10.736 L -11.673 -10.736 L -11.673 67.432 L 0 67.432 Z "/>
<path transform="matrix(1,0,0,-1,349.6378,165.3966)" d="M 0 0 C -6.775 0 -12.299 -1.563 -16.258 -3.128 L -16.258 6.983 C -12.194 8.754 -5.316 10.005 .834 10.005 C 17.927 10.005 21.888 2.501 21.888 -8.546 L 21.888 -43.356 L 15.008 -43.356 L 13.132 -39.188 C 8.963 -42.627 3.128 -44.607 -2.605 -44.607 C -16.05 -44.607 -20.532 -36.271 -20.532 -27.932 C -20.532 -16.675 -13.236 -11.88 -1.459 -10.942 L 10.213 -10.006 L 10.213 -7.4 C 10.213 -2.084 7.712 0 0 0 M -.729 -19.282 C -5.941 -19.907 -8.963 -21.886 -8.963 -27.306 C -8.963 -31.266 -7.296 -35.019 -.938 -35.019 C 3.753 -35.019 6.983 -33.664 10.213 -31.579 L 10.213 -18.031 Z "/>
<path transform="matrix(1,0,0,-1,414.5656,208.7535)" d="M 0 0 L 0 35.748 C 0 41.064 -2.711 43.462 -8.235 43.462 C -13.653 43.462 -17.406 42.002 -20.219 40.439 L -20.219 0 L -31.893 0 L -31.893 52.112 L -25.014 52.112 L -23.139 47.943 C -17.823 51.591 -11.882 53.362 -6.254 53.362 C 6.983 53.362 11.672 46.796 11.672 36.792 L 11.672 0 Z "/>
<path transform="matrix(1,0,0,-1,457.0834,194.9964)" d="M 0 0 C -2.19 0 -4.274 .104 -6.045 .417 C -6.879 -.417 -7.504 -1.563 -7.504 -2.605 C -7.504 -4.378 -6.566 -5.316 -4.378 -5.628 L 14.487 -7.921 C 24.806 -9.171 28.453 -13.86 28.453 -22.512 C 28.453 -35.956 14.278 -41.064 -.834 -41.064 C -14.799 -41.064 -24.91 -36.582 -24.91 -25.848 C -24.91 -18.759 -19.594 -14.591 -14.07 -12.924 L -14.07 -12.82 C -16.675 -11.361 -18.134 -8.442 -18.134 -5.628 C -18.134 -1.771 -15.843 .939 -13.445 2.815 C -19.386 6.149 -21.782 12.194 -21.782 19.803 C -21.782 31.684 -15.946 39.605 0 39.605 C 3.753 39.605 6.879 39.188 9.588 38.355 L 27.619 38.355 L 27.619 30.955 L 20.219 28.871 C 21.261 26.16 21.782 23.139 21.782 19.803 C 21.782 7.922 15.946 0 0 0 M -3.649 -15.32 C -8.963 -16.258 -13.757 -18.655 -13.757 -23.658 C -13.757 -29.495 -9.588 -31.787 0 -31.787 C 9.173 -31.787 17.196 -29.078 17.196 -22.824 C 17.196 -19.282 15.425 -17.719 11.151 -17.196 Z M 0 9.275 C 8.754 9.275 10.736 13.862 10.736 19.803 C 10.736 25.743 8.754 30.33 0 30.33 C -8.754 30.33 -10.736 25.743 -10.736 19.803 C -10.736 13.862 -8.754 9.275 0 9.275 "/>
<path transform="matrix(1,0,0,-1,503.1467,156.642)" d="M 0 0 L 0 -35.748 C 0 -41.064 2.709 -43.46 8.233 -43.46 C 13.653 -43.46 17.406 -42.002 20.218 -40.439 L 20.218 0 L 31.893 0 L 31.893 -52.112 L 25.012 -52.112 L 23.137 -47.943 C 17.821 -51.589 11.882 -53.361 6.253 -53.361 C -6.983 -53.361 -11.673 -46.796 -11.673 -36.79 L -11.673 0 Z "/>
<path transform="matrix(1,0,0,-1,563.0698,165.3966)" d="M 0 0 C -6.775 0 -12.299 -1.563 -16.258 -3.128 L -16.258 6.983 C -12.195 8.754 -5.316 10.005 .834 10.005 C 17.927 10.005 21.888 2.501 21.888 -8.546 L 21.888 -43.356 L 15.008 -43.356 L 13.132 -39.188 C 8.963 -42.627 3.128 -44.607 -2.605 -44.607 C -16.05 -44.607 -20.532 -36.271 -20.532 -27.932 C -20.532 -16.675 -13.237 -11.88 -1.459 -10.942 L 10.213 -10.006 L 10.213 -7.4 C 10.213 -2.084 7.712 0 0 0 M -.729 -19.282 C -5.941 -19.907 -8.963 -21.886 -8.963 -27.306 C -8.963 -31.266 -7.295 -35.019 -.938 -35.019 C 3.753 -35.019 6.983 -33.664 10.213 -31.579 L 10.213 -18.031 Z "/>
<path transform="matrix(1,0,0,-1,615.9074,194.9964)" d="M 0 0 C -2.188 0 -4.274 .104 -6.045 .417 C -6.879 -.417 -7.504 -1.563 -7.504 -2.605 C -7.504 -4.378 -6.566 -5.316 -4.378 -5.628 L 14.487 -7.921 C 24.806 -9.171 28.453 -13.86 28.453 -22.512 C 28.453 -35.956 14.278 -41.064 -.834 -41.064 C -14.799 -41.064 -24.91 -36.582 -24.91 -25.848 C -24.91 -18.759 -19.594 -14.591 -14.07 -12.924 L -14.07 -12.82 C -16.675 -11.361 -18.134 -8.442 -18.134 -5.628 C -18.134 -1.771 -15.843 .939 -13.445 2.815 C -19.386 6.149 -21.782 12.194 -21.782 19.803 C -21.782 31.684 -15.946 39.605 0 39.605 C 3.753 39.605 6.879 39.188 9.588 38.355 L 27.619 38.355 L 27.619 30.955 L 20.219 28.871 C 21.261 26.16 21.782 23.139 21.782 19.803 C 21.782 7.922 15.945 0 0 0 M -3.649 -15.32 C -8.963 -16.258 -13.758 -18.655 -13.758 -23.658 C -13.758 -29.495 -9.588 -31.787 0 -31.787 C 9.173 -31.787 17.196 -29.078 17.196 -22.824 C 17.196 -19.282 15.424 -17.719 11.152 -17.196 Z M 0 9.275 C 8.754 9.275 10.736 13.862 10.736 19.803 C 10.736 25.743 8.754 30.33 0 30.33 C -8.754 30.33 -10.736 25.743 -10.736 19.803 C -10.736 13.862 -8.754 9.275 0 9.275 "/>
<path transform="matrix(1,0,0,-1,672.3921,155.3912)" d="M 0 0 C 18.342 0 21.261 -12.09 21.261 -26.473 C 21.261 -28.244 21.155 -29.911 21.053 -31.58 L -11.361 -31.58 C -11.153 -39.397 -8.338 -44.502 2.292 -44.502 C 8.858 -44.502 14.278 -43.358 18.865 -41.376 L 18.865 -51.381 C 12.924 -53.883 6.149 -54.613 .521 -54.613 C -16.885 -54.613 -23.138 -44.19 -23.138 -27.306 C -23.138 -10.527 -16.989 0 0 0 M -11.361 -23.451 L 9.484 -23.451 C 9.484 -16.362 9.067 -10.111 0 -10.111 C -8.548 -10.111 -10.944 -15.633 -11.361 -23.451 "/>
<path transform="matrix(1,0,0,-1,702.3619,145.304)" d="M 0 0 L 3.254 0 L 6.26 -7.749 L 9.211 0 L 12.465 0 L 12.465 -11.472 L 10.369 -11.472 L 10.369 -2.702 L 10.314 -2.702 L 7.088 -11.472 L 5.378 -11.472 L 2.151 -2.702 L 2.096 -2.702 L 2.096 -11.472 L 0 -11.472 Z M -8.328 -1.93 L -11.858 -1.93 L -11.858 0 L -2.703 0 L -2.703 -1.93 L -6.233 -1.93 L -6.233 -11.472 L -8.328 -11.472 Z "/>
</g>
</g>
</g>
</svg>