<svg xmlns="http://www.w3.org/2000/svg" viewBox="0 0 999.02 259.35"><defs><style>.cls-1{fill:#292929;}</style></defs><g id="Layer_2" data-name="Layer 2"><g id="Layer_1-2" data-name="Layer 1"><path class="cls-1" d="M311.74,62.16V77c-7.38-11.25-24.35-17.43-36.8-17.89-37.36-1.2-70.84,29-70.84,72.4,0,43.16,32.19,73.32,70.93,72.22,11.9-.37,29.05-6.37,36.61-17.9v14.94h40V62.16Zm-35.6,104.22a35.69,35.69,0,1,1,35.69-35.69A35.66,35.66,0,0,1,276.14,166.38ZM0,200.88H40.3V0H.18Zm192.85-68.44c.09-43-28.59-73.32-70.09-73.32-40.68,0-71.2,30.9-71.2,72.31,0,42.61,30.06,72.31,72.86,72.31,30.06,0,52.29-13.93,63.73-36.44l-34.22-13.65c-6.36,10.33-14.48,16.7-29.51,16.7-17,0-31.73-11.71-33.11-27.86h101A70.9,70.9,0,0,0,192.85,132.44ZM91.68,116.21c1.66-13.1,14.75-25.36,30.89-25.36,16.42,0,29,10.6,30.62,25.27C153.1,116.21,91.68,116.21,91.68,116.21ZM448.61,59.12c-18.27,0-30.81,5.72-40.77,17.89V62.16H367.07V200.78h40.77V123.5c0-18.17,10.33-28.5,26-28.5,15.95,0,24.9,10.33,24.9,28.5v77.28h40.77V115.56C499.52,80.7,480.15,59.12,448.61,59.12Zm203.36,0H581.42c-38.92,0-70.56,32.46-70.56,72.31s31.54,72.31,70.56,72.31S652,171.36,652,131.43a73.28,73.28,0,0,0-9.68-36.62H652ZM581.32,166.38c-19.36,0-35.14-15.95-35.14-35.69S562,95,581.32,95s35.14,16,35.14,35.69S600.69,166.38,581.32,166.38Zm-70.55,52.67,141.11.18v40.12l-141.11-.18Zm260-156.89V77c-7.37-11.25-24.34-17.43-36.8-17.89-37.35-1.2-70.83,29-70.83,72.4,0,43.16,32.19,73.32,70.93,72.22,11.89-.37,29.05-6.37,36.61-17.9v14.94h40V62.16ZM735.07,166.38a35.69,35.69,0,1,1,35.69-35.69A35.72,35.72,0,0,1,735.07,166.38Zm91-104.22V259.35h40V185.84c7.56,11.53,24.72,17.53,36.61,17.9,38.74,1.1,70.93-29.06,70.93-72.22,0-43.44-33.48-73.6-70.83-72.4-12.45.46-29.42,6.64-36.8,17.89V62.16ZM866,130.69a35.69,35.69,0,1,1,35.69,35.69A35.65,35.65,0,0,1,866,130.69Z"/><path class="cls-1" d="M999,73.77a14.1,14.1,0,0,1-1.12,5.62,15,15,0,0,1-3,4.58,14.44,14.44,0,0,1-4.5,3.09,13.84,13.84,0,0,1-11,0,14.52,14.52,0,0,1-7.58-7.68,14.1,14.1,0,0,1-1.12-5.62,14.41,14.41,0,0,1,1.12-5.64,14.47,14.47,0,0,1,7.58-7.7,13.84,13.84,0,0,1,11,0,14.33,14.33,0,0,1,4.5,3.11,14.52,14.52,0,0,1,3,4.6A14.23,14.23,0,0,1,999,73.77Zm-3.16,0a11.86,11.86,0,0,0-3.2-8.13,11.12,11.12,0,0,0-3.5-2.48,10.56,10.56,0,0,0-8.62,0,11.43,11.43,0,0,0-3.5,2.48,11.86,11.86,0,0,0-2.36,12.56A11.48,11.48,0,0,0,977,81.84a11.31,11.31,0,0,0,3.5,2.48,10.56,10.56,0,0,0,8.62,0,11.19,11.19,0,0,0,3.5-2.48A11.86,11.86,0,0,0,995,78.21,11.59,11.59,0,0,0,995.86,73.77Zm-5.56-2.69a4.19,4.19,0,0,1-.78,2.5,4.75,4.75,0,0,1-2.1,1.66l3.8,5.72h-3.6l-3.28-5.2h-1.16V81h-3V66.56h5a5.72,5.72,0,0,1,3.72,1.18A4.08,4.08,0,0,1,990.3,71.08Zm-3.12.08a1.62,1.62,0,0,0-.62-1.38,2.56,2.56,0,0,0-1.54-.46h-1.84V73H985a2.44,2.44,0,0,0,1.54-.48A1.66,1.66,0,0,0,987.18,71.16Z"/></g></g></svg>